<mxfile host="app.diagrams.net" modified="2024-04-06T15:56:27.879Z" agent="Mozilla/5.0 (Windows NT 10.0; Win64; x64) AppleWebKit/537.36 (KHTML, like Gecko) Chrome/123.0.0.0 Safari/537.36" etag="yj9xPryrWaI1P1micwrF" version="24.2.2" type="device">
  <diagram name="Page-1" id="HO-izaKZccRhBpew3bZl">
    <mxGraphModel dx="1434" dy="780" grid="1" gridSize="10" guides="1" tooltips="1" connect="1" arrows="1" fold="1" page="1" pageScale="1" pageWidth="827" pageHeight="1169" math="0" shadow="0">
      <root>
        <mxCell id="0" />
        <mxCell id="1" parent="0" />
        <mxCell id="u_nvU3cEz9TE0NWsD2vL-3" value="&lt;p style=&quot;line-height: 150%;&quot;&gt;client&lt;/p&gt;" style="shape=actor;whiteSpace=wrap;html=1;" vertex="1" parent="1">
          <mxGeometry x="260" y="80" width="60" height="90" as="geometry" />
        </mxCell>
        <mxCell id="u_nvU3cEz9TE0NWsD2vL-6" value="API Gateway" style="rounded=0;whiteSpace=wrap;html=1;" vertex="1" parent="1">
          <mxGeometry x="230" y="260" width="120" height="60" as="geometry" />
        </mxCell>
        <mxCell id="u_nvU3cEz9TE0NWsD2vL-8" value="" style="endArrow=classic;html=1;rounded=0;exitX=0.5;exitY=1;exitDx=0;exitDy=0;entryX=0.5;entryY=0;entryDx=0;entryDy=0;" edge="1" parent="1" source="u_nvU3cEz9TE0NWsD2vL-3" target="u_nvU3cEz9TE0NWsD2vL-6">
          <mxGeometry width="50" height="50" relative="1" as="geometry">
            <mxPoint x="149.5" y="180" as="sourcePoint" />
            <mxPoint x="149.5" y="250" as="targetPoint" />
          </mxGeometry>
        </mxCell>
        <mxCell id="u_nvU3cEz9TE0NWsD2vL-9" value="" style="endArrow=classic;startArrow=classic;html=1;rounded=0;" edge="1" parent="1">
          <mxGeometry width="50" height="50" relative="1" as="geometry">
            <mxPoint x="348" y="289.5" as="sourcePoint" />
            <mxPoint x="458" y="289.5" as="targetPoint" />
          </mxGeometry>
        </mxCell>
        <mxCell id="u_nvU3cEz9TE0NWsD2vL-10" value="DÄ±scovery" style="rounded=0;whiteSpace=wrap;html=1;" vertex="1" parent="1">
          <mxGeometry x="458" y="260" width="120" height="60" as="geometry" />
        </mxCell>
        <mxCell id="u_nvU3cEz9TE0NWsD2vL-14" value="API Gateway&lt;div&gt;garanti-service&lt;/div&gt;&lt;div&gt;kredinbizde-service&lt;/div&gt;&lt;div&gt;log-service&lt;/div&gt;&lt;div&gt;notification-service&lt;/div&gt;" style="text;strokeColor=none;align=center;fillColor=none;html=1;verticalAlign=middle;whiteSpace=wrap;rounded=0;" vertex="1" parent="1">
          <mxGeometry x="450" y="160" width="136" height="120" as="geometry" />
        </mxCell>
        <mxCell id="u_nvU3cEz9TE0NWsD2vL-15" value="" style="endArrow=classic;html=1;rounded=0;exitX=0.45;exitY=0.967;exitDx=0;exitDy=0;exitPerimeter=0;entryX=0.671;entryY=0;entryDx=0;entryDy=0;entryPerimeter=0;" edge="1" parent="1">
          <mxGeometry width="50" height="50" relative="1" as="geometry">
            <mxPoint x="290.06" y="320" as="sourcePoint" />
            <mxPoint x="290.00000000000006" y="411.98" as="targetPoint" />
          </mxGeometry>
        </mxCell>
        <mxCell id="u_nvU3cEz9TE0NWsD2vL-16" value="kredinbizde-service" style="rounded=0;whiteSpace=wrap;html=1;" vertex="1" parent="1">
          <mxGeometry x="190" y="410" width="140" height="90" as="geometry" />
        </mxCell>
        <mxCell id="u_nvU3cEz9TE0NWsD2vL-17" value="" style="endArrow=classic;html=1;rounded=0;" edge="1" parent="1">
          <mxGeometry width="50" height="50" relative="1" as="geometry">
            <mxPoint x="335.39" y="430" as="sourcePoint" />
            <mxPoint x="445.39" y="430" as="targetPoint" />
          </mxGeometry>
        </mxCell>
        <mxCell id="u_nvU3cEz9TE0NWsD2vL-18" value="" style="endArrow=classic;html=1;rounded=0;" edge="1" parent="1">
          <mxGeometry width="50" height="50" relative="1" as="geometry">
            <mxPoint x="445.39" y="469" as="sourcePoint" />
            <mxPoint x="335.39" y="469" as="targetPoint" />
          </mxGeometry>
        </mxCell>
        <mxCell id="u_nvU3cEz9TE0NWsD2vL-19" value="Request" style="text;strokeColor=none;align=center;fillColor=none;html=1;verticalAlign=middle;whiteSpace=wrap;rounded=0;" vertex="1" parent="1">
          <mxGeometry x="360.39" y="400" width="60" height="30" as="geometry" />
        </mxCell>
        <mxCell id="u_nvU3cEz9TE0NWsD2vL-20" value="Response" style="text;strokeColor=none;align=center;fillColor=none;html=1;verticalAlign=middle;whiteSpace=wrap;rounded=0;" vertex="1" parent="1">
          <mxGeometry x="360.39" y="470" width="60" height="30" as="geometry" />
        </mxCell>
        <mxCell id="u_nvU3cEz9TE0NWsD2vL-21" value="garanti-service" style="rounded=0;whiteSpace=wrap;html=1;" vertex="1" parent="1">
          <mxGeometry x="448" y="400" width="140" height="90" as="geometry" />
        </mxCell>
        <mxCell id="u_nvU3cEz9TE0NWsD2vL-26" value="" style="endArrow=classic;html=1;rounded=0;exitX=0.079;exitY=1.022;exitDx=0;exitDy=0;exitPerimeter=0;" edge="1" parent="1" source="u_nvU3cEz9TE0NWsD2vL-16">
          <mxGeometry width="50" height="50" relative="1" as="geometry">
            <mxPoint x="390" y="460" as="sourcePoint" />
            <mxPoint x="200" y="600" as="targetPoint" />
          </mxGeometry>
        </mxCell>
        <mxCell id="u_nvU3cEz9TE0NWsD2vL-27" value="RabbitMQ" style="rounded=0;whiteSpace=wrap;html=1;" vertex="1" parent="1">
          <mxGeometry x="130" y="600" width="120" height="60" as="geometry" />
        </mxCell>
        <mxCell id="u_nvU3cEz9TE0NWsD2vL-28" value="" style="endArrow=classic;html=1;rounded=0;exitX=0.5;exitY=1;exitDx=0;exitDy=0;entryX=1;entryY=0;entryDx=0;entryDy=31.25;entryPerimeter=0;" edge="1" parent="1" source="u_nvU3cEz9TE0NWsD2vL-21" target="u_nvU3cEz9TE0NWsD2vL-43">
          <mxGeometry width="50" height="50" relative="1" as="geometry">
            <mxPoint x="390" y="460" as="sourcePoint" />
            <mxPoint x="410" y="600" as="targetPoint" />
          </mxGeometry>
        </mxCell>
        <mxCell id="u_nvU3cEz9TE0NWsD2vL-29" value="Seve on database" style="text;strokeColor=none;align=center;fillColor=none;html=1;verticalAlign=middle;whiteSpace=wrap;rounded=0;rotation=-45;" vertex="1" parent="1">
          <mxGeometry x="390" y="555" width="116" height="30" as="geometry" />
        </mxCell>
        <mxCell id="u_nvU3cEz9TE0NWsD2vL-30" value="notification-service" style="rounded=0;whiteSpace=wrap;html=1;" vertex="1" parent="1">
          <mxGeometry x="130" y="740" width="140" height="90" as="geometry" />
        </mxCell>
        <mxCell id="u_nvU3cEz9TE0NWsD2vL-31" value="" style="endArrow=classic;html=1;rounded=0;entryX=0.558;entryY=1.067;entryDx=0;entryDy=0;entryPerimeter=0;" edge="1" parent="1" target="u_nvU3cEz9TE0NWsD2vL-27">
          <mxGeometry width="50" height="50" relative="1" as="geometry">
            <mxPoint x="197" y="730" as="sourcePoint" />
            <mxPoint x="83" y="670" as="targetPoint" />
          </mxGeometry>
        </mxCell>
        <mxCell id="u_nvU3cEz9TE0NWsD2vL-32" value="" style="endArrow=classic;html=1;rounded=0;" edge="1" parent="1">
          <mxGeometry width="50" height="50" relative="1" as="geometry">
            <mxPoint x="280" y="774.5" as="sourcePoint" />
            <mxPoint x="390" y="774.5" as="targetPoint" />
          </mxGeometry>
        </mxCell>
        <mxCell id="u_nvU3cEz9TE0NWsD2vL-33" value="Send e-mail" style="text;strokeColor=none;align=center;fillColor=none;html=1;verticalAlign=middle;whiteSpace=wrap;rounded=0;" vertex="1" parent="1">
          <mxGeometry x="380" y="760" width="86" height="30" as="geometry" />
        </mxCell>
        <mxCell id="u_nvU3cEz9TE0NWsD2vL-35" value="" style="endArrow=classic;html=1;rounded=0;exitX=0.45;exitY=0.967;exitDx=0;exitDy=0;exitPerimeter=0;entryX=0.671;entryY=0;entryDx=0;entryDy=0;entryPerimeter=0;" edge="1" parent="1">
          <mxGeometry width="50" height="50" relative="1" as="geometry">
            <mxPoint x="300" y="500" as="sourcePoint" />
            <mxPoint x="300" y="592" as="targetPoint" />
          </mxGeometry>
        </mxCell>
        <mxCell id="u_nvU3cEz9TE0NWsD2vL-36" value="Kafka" style="rounded=0;whiteSpace=wrap;html=1;" vertex="1" parent="1">
          <mxGeometry x="420.39" y="690" width="80" height="40" as="geometry" />
        </mxCell>
        <mxCell id="u_nvU3cEz9TE0NWsD2vL-37" value="" style="endArrow=classic;html=1;rounded=0;" edge="1" parent="1">
          <mxGeometry width="50" height="50" relative="1" as="geometry">
            <mxPoint x="660" y="709.5" as="sourcePoint" />
            <mxPoint x="720" y="710" as="targetPoint" />
          </mxGeometry>
        </mxCell>
        <mxCell id="u_nvU3cEz9TE0NWsD2vL-38" value="" style="endArrow=classic;html=1;rounded=0;" edge="1" parent="1">
          <mxGeometry width="50" height="50" relative="1" as="geometry">
            <mxPoint x="540.39" y="709.5" as="sourcePoint" />
            <mxPoint x="500.39" y="709.5" as="targetPoint" />
          </mxGeometry>
        </mxCell>
        <mxCell id="u_nvU3cEz9TE0NWsD2vL-41" value="log-service" style="rounded=0;whiteSpace=wrap;html=1;" vertex="1" parent="1">
          <mxGeometry x="540" y="675" width="120" height="70" as="geometry" />
        </mxCell>
        <mxCell id="u_nvU3cEz9TE0NWsD2vL-42" value="MongoDB" style="rounded=0;whiteSpace=wrap;html=1;" vertex="1" parent="1">
          <mxGeometry x="720" y="690" width="80" height="40" as="geometry" />
        </mxCell>
        <mxCell id="u_nvU3cEz9TE0NWsD2vL-43" value="Postgre Database" style="shape=cylinder3;whiteSpace=wrap;html=1;boundedLbl=1;backgroundOutline=1;size=15;" vertex="1" parent="1">
          <mxGeometry x="270" y="595" width="80" height="95" as="geometry" />
        </mxCell>
        <mxCell id="u_nvU3cEz9TE0NWsD2vL-44" value="&lt;font style=&quot;font-size: 19px;&quot;&gt;Project Structure&lt;/font&gt;" style="text;strokeColor=none;align=center;fillColor=none;html=1;verticalAlign=middle;whiteSpace=wrap;rounded=0;" vertex="1" parent="1">
          <mxGeometry x="250" y="20" width="310" height="60" as="geometry" />
        </mxCell>
      </root>
    </mxGraphModel>
  </diagram>
</mxfile>
